PathFileType	4	(X/Y/Z)	C:/Users/labor/Downloads/static_updated_hjc.trc	
DataRate	CameraRate	NumFrames	NumMarkers	Units	OrigDataRate	OrigDataStartFrame	OrigNumFrames	
200.00	200.00	4	69	mm	200.00	230	175	
Frame#	Time	FHD			LBHD			RBHD			RBAR			LBAR			RASI			RSACR			LSACR			LASI			USACR			C7			CLAV			T10			RSHO			LSHO			LTHI1			LTHI3			LTHI2			LTHI4			LLFC			LMFC			LTIB1			LTIB2			LTIB3			LTIB4			LMMAL			LLMAL			LHEE			LMT1			LMT5			LMT3			RTHI1			RTHI2			RTHI3			RTHI4			RLFC			RMFC			RTIB1			RTIB3			RTIB2			RTIB4			RLMAL			RMMAL			RHEE			RMT5			RMT1			RMT3			LMEP			LLEP			LDUPA			LMUPA			LUUPA			LUL			LRAD			LRFIN			RUL			RRAD			RUFIN			RMEP			RLEP			RMUPA			RDUPA			RUUPA			LAJC			RAJC			LKJC			RKJC			RHJC			LHJC			
		X1	Y1	Z1	X2	Y2	Z2	X3	Y3	Z3	X4	Y4	Z4	X5	Y5	Z5	X6	Y6	Z6	X7	Y7	Z7	X8	Y8	Z8	X9	Y9	Z9	X10	Y10	Z10	X11	Y11	Z11	X12	Y12	Z12	X13	Y13	Z13	X14	Y14	Z14	X15	Y15	Z15	X16	Y16	Z16	X17	Y17	Z17	X18	Y18	Z18	X19	Y19	Z19	X20	Y20	Z20	X21	Y21	Z21	X22	Y22	Z22	X23	Y23	Z23	X24	Y24	Z24	X25	Y25	Z25	X26	Y26	Z26	X27	Y27	Z27	X28	Y28	Z28	X29	Y29	Z29	X30	Y30	Z30	X31	Y31	Z31	X32	Y32	Z32	X33	Y33	Z33	X34	Y34	Z34	X35	Y35	Z35	X36	Y36	Z36	X37	Y37	Z37	X38	Y38	Z38	X39	Y39	Z39	X40	Y40	Z40	X41	Y41	Z41	X42	Y42	Z42	X43	Y43	Z43	X44	Y44	Z44	X45	Y45	Z45	X46	Y46	Z46	X47	Y47	Z47	X48	Y48	Z48	X49	Y49	Z49	X50	Y50	Z50	X51	Y51	Z51	X52	Y52	Z52	X53	Y53	Z53	X54	Y54	Z54	X55	Y55	Z55	X56	Y56	Z56	X57	Y57	Z57	X58	Y58	Z58	X59	Y59	Z59	X60	Y60	Z60	X61	Y61	Z61	X62	Y62	Z62	X63	Y63	Z63	X64	Y64	Z64	X65	Y65	Z65	X66	Y66	Z66	X67	Y67	Z67	X68	Y68	Z68	X69	Y69	Z69	

66	0.325	112.34525	930.33722	1727.35095	282.14035	852.27252	1697.21375	237.67288	1005.12885	1725.84241	2013.76941	2007.84924	28.05611	1903.45483	-212.51855	23.66909	158.14267	1062.32166	969.90936	347.76816	958.20056	977.00159	345.21637	915.86816	973.01868	153.05362	813.24481	974.34540	338.51279	933.10254	985.71375	318.93823	924.60291	1481.52771	163.27779	925.23511	1432.18909	332.93936	934.80817	1169.98096	299.00821	1086.22400	1468.13147	285.49323	764.12848	1461.80164	221.86961	732.36621	813.52533	189.23300	732.42517	790.80212	236.57619	723.97614	774.55603	191.17102	724.08258	726.43292	261.00769	743.01935	499.35721	235.99237	847.58130	469.70905	319.77341	730.91266	416.42972	296.03223	714.44507	378.02042	342.98157	727.87677	366.53976	309.02924	709.57928	313.59842	251.50253	823.05127	97.34944	282.07443	736.59229	76.63960	331.21173	786.19452	35.41852	111.33223	775.05487	41.06826	155.19547	703.82489	29.49465	128.84351	724.55872	33.65656	209.06055	1143.23523	817.42981	209.75560	1148.46838	784.67633	162.43057	1130.31848	781.78583	188.74434	1146.02405	721.88873	256.14261	1124.49268	500.71512	242.44800	1003.05426	482.88177	306.78275	1136.75781	433.03189	339.87021	1142.49072	382.88730	289.71820	1154.29358	385.61868	312.44888	1155.46301	323.79504	288.00424	1132.33435	82.87038	248.73068	1049.89856	100.36622	328.43439	1073.77917	33.18297	172.52663	1181.92554	28.88233	119.29363	1119.27649	45.91676	130.81509	1159.92444	35.03417	214.67189	501.50098	1296.73389	272.40335	489.64886	1396.02673	305.13821	564.10236	1389.57422	323.84207	623.01233	1382.20825	297.61560	635.63757	1422.83362	226.63055	232.74736	1365.92871	168.03462	247.50287	1343.45654	157.92236	153.43404	1353.78162	247.59839	1608.16296	1397.02490	197.37862	1593.00452	1401.59387	182.06763	1698.04297	1401.74402	232.95566	1358.20056	1300.39368	284.29779	1363.62097	1402.94897	321.20993	1267.19958	1401.06958	286.07843	1284.55981	1432.62598	314.91846	1210.23926	1426.15845	266.78848	779.82178	86.99452	268.36746	1091.11646	91.61830	248.50003	795.30032	484.53313	249.29530	1063.77347	491.79845	248.32773	997.71210	977.81155	245.78320	873.17368	980.02957 
67	0.330	112.50902	930.32611	1727.48889	282.33063	852.28003	1697.14319	237.83444	1005.11414	1725.82446	2013.77063	2007.88684	28.05468	1903.43628	-212.55534	23.66492	158.09848	1062.31140	969.90039	347.72546	958.19971	977.00598	345.17133	915.85474	973.02826	153.01443	813.23700	974.33820	338.31528	933.04706	985.62598	318.94833	924.59296	1481.50208	163.25877	925.22382	1432.19556	332.90085	934.80627	1169.97083	298.97601	1086.22363	1468.12793	285.46750	764.12128	1461.79346	221.83438	732.36871	813.51697	189.19582	732.42072	790.79279	236.50882	723.93250	774.52148	191.14844	724.09442	726.41656	261.00479	743.02319	499.35324	235.98996	847.57184	469.69040	319.76901	730.93152	416.43381	296.02222	714.45471	378.02661	343.12671	727.69867	366.60544	309.15659	710.49261	313.51300	251.75821	822.71277	97.23342	282.07300	736.59735	76.63714	331.09714	786.17645	35.31483	111.33421	775.04742	41.05947	155.19171	703.82947	29.49069	128.83553	724.56415	33.64771	209.01857	1143.22839	817.42346	209.70988	1148.46802	784.68396	162.38734	1130.30640	781.78735	188.71252	1146.01135	721.87738	256.11252	1124.48169	500.71255	242.42453	1003.04401	482.88504	306.75476	1136.75696	433.02911	339.85809	1142.49609	382.90057	289.70251	1154.29614	385.61557	312.43121	1155.47168	323.80917	288.00763	1132.32275	82.86710	248.75912	1049.88208	100.35314	328.43094	1073.76660	33.19136	172.52011	1181.92529	28.89704	119.29292	1119.27222	45.91124	130.81848	1159.92090	35.01855	214.68465	501.48526	1296.75195	272.38623	489.64517	1396.04065	305.10791	564.10590	1389.58093	323.80923	623.00854	1382.20996	297.58789	635.63507	1422.83252	226.61336	232.74504	1365.96155	168.02835	247.48010	1343.47131	157.87721	153.31050	1353.80212	247.52907	1608.16174	1397.01660	197.30966	1592.99561	1401.59009	181.97929	1698.03198	1401.73242	232.93399	1358.20984	1300.36707	284.27524	1363.62170	1403.05286	321.15344	1267.20715	1401.08887	286.00342	1284.56555	1432.62341	314.85861	1210.24829	1426.16357	266.91560	779.65506	86.93528	268.38338	1091.10242	91.61012	248.49738	795.29752	484.52182	249.26852	1063.76285	491.79880	248.20688	997.67923	977.76318	245.66486	873.14203	979.98209 
68	0.335	112.67875	930.27820	1727.61548	282.50989	852.28491	1697.07507	237.94041	1004.68085	1725.77686	2013.73315	2007.90564	28.07899	1903.39868	-212.68489	23.77383	158.05270	1062.31262	969.89044	347.61429	958.22809	977.02008	345.13129	915.85742	973.02466	152.96858	813.23309	974.32410	338.41995	933.10022	985.72205	318.94058	924.61322	1481.50183	163.23477	925.22711	1432.20471	332.85507	934.80164	1169.96350	298.93542	1086.22900	1468.12219	285.45178	764.12720	1461.78845	221.79303	732.37732	813.50940	189.17299	732.42010	790.78180	236.48024	723.94354	774.52106	191.11578	724.10883	726.40906	260.99268	743.03308	499.34927	236.21291	847.32574	469.64737	319.76709	730.94653	416.43539	296.01932	714.45203	378.02701	343.13837	727.72235	366.59460	309.07217	709.74561	313.75800	251.59401	823.04071	97.40663	282.07434	736.59747	76.64182	331.20282	786.19037	35.42035	111.32829	775.05176	41.06344	155.19322	703.82117	29.50045	128.83981	724.56287	33.64791	208.96950	1143.22241	817.41974	209.65521	1148.47217	784.68158	162.34560	1130.30811	781.78076	188.66933	1146.00281	721.85931	256.08310	1124.47815	500.71280	242.41040	1003.03137	482.89005	306.73160	1136.75452	433.03024	339.83511	1142.47351	382.89188	289.66147	1154.28967	385.61896	312.46893	1155.04382	323.72403	288.00305	1132.31274	82.87038	248.73602	1049.86194	100.35465	328.43613	1073.76208	33.19174	172.51678	1181.91553	28.89336	119.28201	1119.26599	45.91225	130.80051	1159.93384	35.05294	214.65569	502.29828	1297.17212	272.37497	489.62912	1396.05273	305.07578	564.10004	1389.58960	323.78497	623.00476	1382.21252	297.56531	635.63312	1422.82947	226.59654	232.74127	1365.99023	168.02417	247.48206	1343.47437	157.87218	153.31415	1353.78259	247.45967	1608.16614	1397.02429	197.23698	1592.99304	1401.58374	181.90776	1698.03345	1401.69836	232.86954	1358.20142	1300.37952	284.18420	1363.60010	1402.98413	321.09274	1267.21667	1401.09680	285.92422	1284.56787	1432.62231	314.80298	1210.25732	1426.17273	266.83418	779.81909	87.02423	268.36954	1091.08734	91.61251	248.60279	795.17941	484.49832	249.24675	1063.75476	491.80142	248.23633	997.70642	977.80624	245.69427	873.16666	980.02307 
69	0.340	112.85121	930.24182	1727.73840	282.68045	852.30634	1697.00464	238.10484	1004.68945	1725.77002	2013.83264	2007.78125	28.02315	1903.29468	-212.82713	23.85629	158.00238	1062.30981	969.89624	347.55911	958.22339	977.02319	345.08505	915.85510	973.02435	152.93468	813.22577	974.31598	338.38385	933.09814	985.72015	318.95020	924.59839	1481.48840	163.22221	925.21484	1432.21277	332.80606	934.80640	1169.95752	298.89758	1086.22876	1468.11438	285.43390	764.12329	1461.79041	221.76097	732.38251	813.50311	189.16483	732.41931	790.74469	236.44182	723.97308	774.51422	191.08907	724.13513	726.40662	260.98898	743.03552	499.35052	236.18898	847.34027	469.64880	319.77084	730.96161	416.43304	296.02072	714.45862	378.04855	342.98145	727.91504	366.52460	309.08194	709.75208	313.75186	251.61011	822.74921	97.17610	282.07568	736.59766	76.64864	331.20035	786.19910	35.42582	111.32697	775.04468	41.06091	155.19258	703.82556	29.49075	128.83636	724.55933	33.64563	208.91820	1143.21765	817.41522	209.62585	1148.45337	784.66217	162.29150	1130.29578	781.77075	188.74884	1146.01538	721.82294	256.04077	1124.46887	500.71124	242.37662	1003.02362	482.89346	306.69940	1136.75671	433.03586	339.80771	1142.47131	382.89297	289.64072	1154.28735	385.61554	312.39917	1155.45862	323.80637	288.00040	1132.31555	82.87474	248.79762	1049.91211	100.31975	328.42606	1073.76624	33.19250	172.52153	1181.90515	28.88660	119.28574	1119.26013	45.89808	130.78310	1159.92566	35.06118	214.70178	501.48087	1296.72021	272.35995	489.62064	1396.06055	305.05698	564.08923	1389.59033	323.77972	622.99127	1382.21912	297.54279	635.62451	1422.82458	226.58891	232.73009	1366.01428	168.02843	247.47401	1343.46790	157.86870	153.30286	1353.78162	247.36806	1608.16943	1396.98865	197.15742	1592.99133	1401.56494	181.82666	1698.04895	1401.65710	232.86165	1358.21423	1300.30615	284.16113	1363.62463	1402.98694	321.03732	1267.22681	1401.11060	285.85574	1284.57080	1432.61963	314.74826	1210.26135	1426.18225	266.84290	779.67343	86.91237	268.39901	1091.11383	91.59724	248.58898	795.18790	484.49966	249.20869	1063.74625	491.80235	248.19312	997.70398	977.80820	245.65926	873.16196	980.01807 
